<?xml version="1.0" encoding="UTF-8" standalone="no"?>
<!DOCTYPE svg PUBLIC "-//W3C//DTD SVG 1.1//EN" "http://www.w3.org/Graphics/SVG/1.1/DTD/svg11.dtd">
<!-- Создано Microsoft Visio, экспорт SVG safe-jsonp.svg Page-1 -->
<svg xmlns="http://www.w3.org/2000/svg" xmlns:xlink="http://www.w3.org/1999/xlink" xmlns:ev="http://www.w3.org/2001/xml-events"
		xmlns:v="http://schemas.microsoft.com/visio/2003/SVGExtensions/" width="11.6929in" height="8.26772in"
		viewBox="0 0 841.89 595.276" xml:space="preserve" color-interpolation-filters="sRGB" class="st21">
	<v:documentProperties v:langID="1049" v:metric="true" v:viewMarkup="false">
		<v:userDefs>
			<v:ud v:nameU="msvSubprocessMaster" v:prompt="" v:val="VT4(Rectangle)"/>
			<v:ud v:nameU="msvNoAutoConnect" v:val="VT0(1):26"/>
		</v:userDefs>
	</v:documentProperties>

	<style type="text/css">
	<![CDATA[
		.st1 {visibility:visible}
		.st2 {fill:none;filter:url(#filter_2);stroke:#5b9bd5;stroke-opacity:0.22}
		.st3 {fill:none;stroke:#c7c8c8;stroke-width:0.25}
		.st4 {fill:#5b9bd5;filter:url(#filter_2);font-family:Calibri;font-size:1.99999em;opacity:0.219608}
		.st5 {font-size:1em}
		.st6 {fill:none;stroke:#000000;stroke-width:0.25}
		.st7 {fill:#000000;font-family:Calibri;font-size:1.99999em}
		.st8 {fill:#5b9bd5;fill-opacity:0.25;filter:url(#filter_2);stroke:#5b9bd5;stroke-opacity:0.25}
		.st9 {fill:#4f87bb;stroke:#40709c;stroke-width:0.75}
		.st10 {fill:#feffff;font-family:Calibri;font-size:0.833336em}
		.st11 {fill:#5b9bd5;fill-opacity:0.22;filter:url(#filter_2);stroke:#5b9bd5;stroke-opacity:0.22}
		.st12 {fill:#ffffff;stroke:#000000;stroke-width:0.25}
		.st13 {fill:#000000;font-family:Calibri;font-size:1.33333em}
		.st14 {fill:#5b9bd5;filter:url(#filter_2);font-family:Calibri;font-size:0.833336em;opacity:0.219608}
		.st15 {fill:#000000;font-family:Calibri;font-size:0.833336em}
		.st16 {fill:#5b9bd5;stroke:#c7c8c8;stroke-width:0.25}
		.st17 {fill:#ffffff;font-family:Calibri;font-size:1.99999em;font-weight:bold}
		.st18 {fill:#feffff;font-family:Calibri;font-size:1.99999em;font-weight:bold}
		.st19 {fill:none;stroke:none;stroke-width:0.25}
		.st20 {fill:#000000;font-family:Calibri;font-size:1.99999em;font-weight:bold}
		.st21 {fill:none;fill-rule:evenodd;font-size:12px;overflow:visible;stroke-linecap:square;stroke-miterlimit:3}
	]]>
	</style>

	<defs id="Filters">
		<filter id="filter_2">
			<feGaussianBlur stdDeviation="2"/>
		</filter>
	</defs>
	<g v:mID="0" v:index="1" v:groupContext="foregroundPage">
		<v:userDefs>
			<v:ud v:nameU="msvThemeOrder" v:val="VT0(0):26"/>
		</v:userDefs>
		<title>Страница-1</title>
		<v:pageProperties v:drawingScale="0.0393701" v:pageScale="0.0393701" v:drawingUnits="24" v:shadowOffsetX="8.50394"
				v:shadowOffsetY="-8.50394"/>
		<v:layer v:name="Соединительная линия" v:index="0"/>
		<g id="shape49-1" v:mID="49" v:groupContext="shape" transform="translate(524.409,-184.252)">
			<title>Прямоугольник.49</title>
			<v:userDefs>
				<v:ud v:nameU="visVersion" v:val="VT0(15):26"/>
			</v:userDefs>
			<g id="shadow49-2" v:groupContext="shadow" v:shadowOffsetX="0.345598" v:shadowOffsetY="-1.97279" v:shadowType="1"
					transform="matrix(1,0,0,1,0.345598,1.97279)" class="st1">
				<rect x="0" y="240.945" width="235.276" height="354.331" class="st2"/>
			</g>
			<rect x="0" y="240.945" width="235.276" height="354.331" class="st3"/>
		</g>
		<g id="shape7-6" v:mID="7" v:groupContext="shape" transform="translate(56.6929,-184.252)">
			<title>Лист.7</title>
			<g id="shadow7-7" v:groupContext="shadow" v:shadowOffsetX="0.345598" v:shadowOffsetY="-1.97279" v:shadowType="1"
					transform="matrix(1,0,0,1,0.345598,1.97279)" class="st1">
				<rect x="0" y="240.945" width="425.197" height="354.331" class="st2"/>
			</g>
			<rect x="0" y="240.945" width="425.197" height="354.331" class="st3"/>
		</g>
		<g id="shape5-11" v:mID="5" v:groupContext="shape" transform="translate(70.8661,-198.425)">
			<title>Прямоугольник</title>
			<desc>MAIN DOCUMENT</desc>
			<v:userDefs>
				<v:ud v:nameU="visVersion" v:val="VT0(15):26"/>
			</v:userDefs>
			<v:textBlock v:margins="rect(4,4,4,4)" v:tabSpace="42.5197"/>
			<v:textRect cx="70.8661" cy="432.283" width="141.74" height="325.984"/>
			<g id="shadow5-12" v:groupContext="shadow" v:shadowOffsetX="0.345598" v:shadowOffsetY="-1.97279" v:shadowType="1"
					transform="matrix(1,0,0,1,0.345598,1.97279)" class="st1">
				<rect x="0" y="269.291" width="141.732" height="325.984" class="st2"/>
				<text x="42.89" y="425.08" class="st4" v:langID="1033"><v:paragraph v:horizAlign="1"/><v:tabList/>MAIN<v:newlineChar/><tspan
							x="11.73" dy="1.2em" class="st5">DOCUMENT</tspan></text>			</g>
			<rect x="0" y="269.291" width="141.732" height="325.984" class="st6"/>
			<text x="42.89" y="425.08" class="st7" v:langID="1033"><v:paragraph v:horizAlign="1"/><v:tabList/>MAIN<v:newlineChar/><tspan
						x="11.73" dy="1.2em" class="st5">DOCUMENT</tspan></text>		</g>
		<g id="shape8-21" v:mID="8" v:groupContext="shape" transform="translate(566.929,-467.717)">
			<title>Лист.8</title>
			<desc>ORIGIN 1</desc>
			<v:textBlock v:margins="rect(4,4,4,4)" v:tabSpace="42.5197"/>
			<v:textRect cx="77.9528" cy="566.929" width="155.91" height="56.6929"/>
			<g id="shadow8-22" v:groupContext="shadow" v:shadowOffsetX="0.345598" v:shadowOffsetY="-1.97279" v:shadowType="1"
					transform="matrix(1,0,0,1,0.345598,1.97279)" class="st1">
				<rect x="0" y="538.583" width="155.906" height="56.6929" class="st2"/>
				<text x="33.33" y="574.13" class="st4" v:langID="1033"><v:paragraph v:horizAlign="1"/><v:tabList/>ORIGIN 1</text>			</g>
			<rect x="0" y="538.583" width="155.906" height="56.6929" class="st6"/>
			<text x="33.33" y="574.13" class="st7" v:langID="1033"><v:paragraph v:horizAlign="1"/><v:tabList/>ORIGIN 1</text>		</g>
		<g id="shape19-29" v:mID="19" v:groupContext="shape" transform="translate(781.317,482.651) rotate(130.101)">
			<title>Простая двусторонняя стрелка</title>
			<desc>DOM PostMessage</desc>
			<v:userDefs>
				<v:ud v:nameU="visVersion" v:val="VT0(15):26"/>
				<v:ud v:nameU="ArrowType" v:prompt="" v:val="VT0(3):26"/>
			</v:userDefs>
			<v:textBlock v:margins="rect(4,4,4,4)" v:tabSpace="42.5197"/>
			<v:textRect cx="88.0139" cy="595.276" width="176.03" height="0" transform="rotate(180)"/>
			<g id="shadow19-30" v:groupContext="shadow" v:shadowOffsetX="0.345598" v:shadowOffsetY="-1.97279" v:shadowType="1"
					transform="matrix(1,0,0,1,1.2864,-1.5351)" class="st1">
				<path d="M0 595.28 L11.34 583.94 L11.34 589.61 L164.69 589.61 L164.69 583.94 L176.03 595.28 L164.69 606.61 L164.69
							 600.94 L11.34 600.94 L11.34 606.61 L0 595.28 Z" class="st8"/>
			</g>
			<path d="M0 595.28 L11.34 583.94 L11.34 589.61 L164.69 589.61 L164.69 583.94 L176.03 595.28 L164.69 606.61 L164.69 600.94
						 L11.34 600.94 L11.34 606.61 L0 595.28 Z" class="st9"/>
			<text x="-126.57" y="-592.28" transform="rotate(180)" class="st10" v:langID="1033"><v:paragraph v:horizAlign="1"/><v:tabList/>DOM PostMessage</text>		</g>
		<g id="shape23-35" v:mID="23" v:groupContext="shape" transform="translate(467.717,-496.063)">
			<title>Простая двусторонняя стрелка.23</title>
			<desc>HTTP GET</desc>
			<v:userDefs>
				<v:ud v:nameU="visVersion" v:val="VT0(15):26"/>
				<v:ud v:nameU="ArrowType" v:prompt="" v:val="VT0(3):26"/>
			</v:userDefs>
			<v:textBlock v:margins="rect(4,4,4,4)" v:tabSpace="42.5197"/>
			<v:textRect cx="49.6063" cy="595.276" width="99.22" height="0"/>
			<g id="shadow23-36" v:groupContext="shadow" v:shadowOffsetX="0.345598" v:shadowOffsetY="-1.97279" v:shadowType="1"
					transform="matrix(1,0,0,1,0.345598,1.97279)" class="st1">
				<path d="M0 595.28 L11.34 583.94 L11.34 589.61 L87.87 589.61 L87.87 583.94 L99.21 595.28 L87.87 606.61 L87.87 600.94
							 L11.34 600.94 L11.34 606.61 L0 595.28 Z" class="st8"/>
			</g>
			<path d="M0 595.28 L11.34 583.94 L11.34 589.61 L87.87 589.61 L87.87 583.94 L99.21 595.28 L87.87 606.61 L87.87 600.94
						 L11.34 600.94 L11.34 606.61 L0 595.28 Z" class="st9"/>
			<text x="29.87" y="598.28" class="st10" v:langID="1033"><v:paragraph v:horizAlign="1"/><v:tabList/>HTTP GET</text>		</g>
		<g id="group24-41" transform="translate(325.984,-382.677)" v:mID="24" v:groupContext="group">
			<title>Лист.24</title>
			<g id="shape6-42" v:mID="6" v:groupContext="shape" transform="translate(9.59233E-14,-85.0394)">
				<title>Прямоугольник.6</title>
				<desc>IFRAME SANDBOX 1</desc>
				<v:userDefs>
					<v:ud v:nameU="visVersion" v:val="VT0(15):26"/>
				</v:userDefs>
				<v:textBlock v:margins="rect(4,4,4,4)" v:tabSpace="42.5197"/>
				<v:textRect cx="70.8661" cy="566.929" width="141.74" height="56.6929"/>
				<g id="shadow6-43" v:groupContext="shadow" v:shadowOffsetX="0.345598" v:shadowOffsetY="-1.97279" v:shadowType="1"
						transform="matrix(1,0,0,1,0.345598,1.97279)" class="st1">
					<rect x="0" y="538.583" width="141.732" height="56.6929" class="st11"/>
				</g>
				<rect x="0" y="538.583" width="141.732" height="56.6929" class="st12"/>
				<text x="5.59" y="571.73" class="st13" v:langID="1033"><v:paragraph v:horizAlign="1"/><v:tabList/>IFRAME SANDBOX 1</text>			</g>
			<g id="shape13-48" v:mID="13" v:groupContext="shape" transform="translate(0,-56.6929)">
				<title>Прямоугольник.13</title>
				<desc>Query 1</desc>
				<v:userDefs>
					<v:ud v:nameU="visVersion" v:val="VT0(15):26"/>
				</v:userDefs>
				<v:textBlock v:margins="rect(4,4,4,4)" v:tabSpace="42.5197"/>
				<v:textRect cx="70.8661" cy="581.102" width="141.74" height="28.3465"/>
				<g id="shadow13-49" v:groupContext="shadow" v:shadowOffsetX="0.345598" v:shadowOffsetY="-1.97279" v:shadowType="1"
						transform="matrix(1,0,0,1,0.345598,1.97279)" class="st1">
					<rect x="0" y="566.929" width="141.732" height="28.3465" class="st2"/>
					<text x="54.72" y="584.1" class="st14" v:langID="1033"><v:paragraph v:horizAlign="1"/><v:tabList/>Query 1</text>				</g>
				<rect x="0" y="566.929" width="141.732" height="28.3465" class="st6"/>
				<text x="54.72" y="584.1" class="st15" v:langID="1033"><v:paragraph v:horizAlign="1"/><v:tabList/>Query 1</text>			</g>
			<g id="shape14-56" v:mID="14" v:groupContext="shape" transform="translate(0,-28.3465)">
				<title>Прямоугольник.14</title>
				<desc>…</desc>
				<v:userDefs>
					<v:ud v:nameU="visVersion" v:val="VT0(15):26"/>
				</v:userDefs>
				<v:textBlock v:margins="rect(4,4,4,4)" v:tabSpace="42.5197"/>
				<v:textRect cx="70.8661" cy="581.102" width="141.74" height="28.3465"/>
				<g id="shadow14-57" v:groupContext="shadow" v:shadowOffsetX="0.345598" v:shadowOffsetY="-1.97279" v:shadowType="1"
						transform="matrix(1,0,0,1,0.345598,1.97279)" class="st1">
					<rect x="0" y="566.929" width="141.732" height="28.3465" class="st2"/>
					<text x="67.41" y="584.1" class="st14" v:langID="1033"><v:paragraph v:horizAlign="1"/><v:tabList/>…</text>				</g>
				<rect x="0" y="566.929" width="141.732" height="28.3465" class="st6"/>
				<text x="67.41" y="584.1" class="st15" v:langID="1033"><v:paragraph v:horizAlign="1"/><v:tabList/>…</text>			</g>
			<g id="shape15-64" v:mID="15" v:groupContext="shape">
				<title>Прямоугольник.15</title>
				<desc>Query N</desc>
				<v:userDefs>
					<v:ud v:nameU="visVersion" v:val="VT0(15):26"/>
				</v:userDefs>
				<v:textBlock v:margins="rect(4,4,4,4)" v:tabSpace="42.5197"/>
				<v:textRect cx="70.8661" cy="581.102" width="141.74" height="28.3465"/>
				<g id="shadow15-65" v:groupContext="shadow" v:shadowOffsetX="0.345598" v:shadowOffsetY="-1.97279" v:shadowType="1"
						transform="matrix(1,0,0,1,0.345598,1.97279)" class="st1">
					<rect x="0" y="566.929" width="141.732" height="28.3465" class="st2"/>
					<text x="54.02" y="584.1" class="st14" v:langID="1033"><v:paragraph v:horizAlign="1"/><v:tabList/>Query N</text>				</g>
				<rect x="0" y="566.929" width="141.732" height="28.3465" class="st6"/>
				<text x="54.02" y="584.1" class="st15" v:langID="1033"><v:paragraph v:horizAlign="1"/><v:tabList/>Query N</text>			</g>
		</g>
		<g id="shape39-72" v:mID="39" v:groupContext="shape" transform="translate(566.929,-283.465)">
			<title>Лист.39</title>
			<desc>ORIGIN N</desc>
			<v:textBlock v:margins="rect(4,4,4,4)" v:tabSpace="42.5197"/>
			<v:textRect cx="77.9528" cy="566.929" width="155.91" height="56.6929"/>
			<g id="shadow39-73" v:groupContext="shadow" v:shadowOffsetX="0.345598" v:shadowOffsetY="-1.97279" v:shadowType="1"
					transform="matrix(1,0,0,1,0.345598,1.97279)" class="st1">
				<rect x="0" y="538.583" width="155.906" height="56.6929" class="st2"/>
				<text x="31.67" y="574.13" class="st4" v:langID="1033"><v:paragraph v:horizAlign="1"/><v:tabList/>ORIGIN N</text>			</g>
			<rect x="0" y="538.583" width="155.906" height="56.6929" class="st6"/>
			<text x="31.67" y="574.13" class="st7" v:langID="1033"><v:paragraph v:horizAlign="1"/><v:tabList/>ORIGIN N</text>		</g>
		<g id="shape40-80" v:mID="40" v:groupContext="shape" transform="translate(467.717,-311.811)">
			<title>Простая двусторонняя стрелка.40</title>
			<desc>HTTP GET</desc>
			<v:userDefs>
				<v:ud v:nameU="visVersion" v:val="VT0(15):26"/>
				<v:ud v:nameU="ArrowType" v:prompt="" v:val="VT0(3):26"/>
			</v:userDefs>
			<v:textBlock v:margins="rect(4,4,4,4)" v:tabSpace="42.5197"/>
			<v:textRect cx="49.6063" cy="595.276" width="99.22" height="0"/>
			<g id="shadow40-81" v:groupContext="shadow" v:shadowOffsetX="0.345598" v:shadowOffsetY="-1.97279" v:shadowType="1"
					transform="matrix(1,0,0,1,0.345598,1.97279)" class="st1">
				<path d="M0 595.28 L11.34 583.94 L11.34 589.61 L87.87 589.61 L87.87 583.94 L99.21 595.28 L87.87 606.61 L87.87 600.94
							 L11.34 600.94 L11.34 606.61 L0 595.28 Z" class="st8"/>
			</g>
			<path d="M0 595.28 L11.34 583.94 L11.34 589.61 L87.87 589.61 L87.87 583.94 L99.21 595.28 L87.87 606.61 L87.87 600.94
						 L11.34 600.94 L11.34 606.61 L0 595.28 Z" class="st9"/>
			<text x="29.87" y="598.28" class="st10" v:langID="1033"><v:paragraph v:horizAlign="1"/><v:tabList/>HTTP GET</text>		</g>
		<g id="group41-86" transform="translate(325.984,-198.425)" v:mID="41" v:groupContext="group">
			<title>Лист.41</title>
			<g id="shape42-87" v:mID="42" v:groupContext="shape" transform="translate(9.59233E-14,-85.0394)">
				<title>Прямоугольник.6</title>
				<desc>IFRAME SANDBOX N</desc>
				<v:userDefs>
					<v:ud v:nameU="visVersion" v:val="VT0(15):26"/>
				</v:userDefs>
				<v:textBlock v:margins="rect(4,4,4,4)" v:tabSpace="42.5197"/>
				<v:textRect cx="70.8661" cy="566.929" width="141.74" height="56.6929"/>
				<g id="shadow42-88" v:groupContext="shadow" v:shadowOffsetX="0.345598" v:shadowOffsetY="-1.97279" v:shadowType="1"
						transform="matrix(1,0,0,1,0.345598,1.97279)" class="st1">
					<rect x="0" y="538.583" width="141.732" height="56.6929" class="st11"/>
				</g>
				<rect x="0" y="538.583" width="141.732" height="56.6929" class="st12"/>
				<text x="4.48" y="571.73" class="st13" v:langID="1033"><v:paragraph v:horizAlign="1"/><v:tabList/>IFRAME SANDBOX N</text>			</g>
			<g id="shape43-93" v:mID="43" v:groupContext="shape" transform="translate(0,-56.6929)">
				<title>Прямоугольник.13</title>
				<desc>Query 1</desc>
				<v:userDefs>
					<v:ud v:nameU="visVersion" v:val="VT0(15):26"/>
				</v:userDefs>
				<v:textBlock v:margins="rect(4,4,4,4)" v:tabSpace="42.5197"/>
				<v:textRect cx="70.8661" cy="581.102" width="141.74" height="28.3465"/>
				<g id="shadow43-94" v:groupContext="shadow" v:shadowOffsetX="0.345598" v:shadowOffsetY="-1.97279" v:shadowType="1"
						transform="matrix(1,0,0,1,0.345598,1.97279)" class="st1">
					<rect x="0" y="566.929" width="141.732" height="28.3465" class="st2"/>
					<text x="54.72" y="584.1" class="st14" v:langID="1033"><v:paragraph v:horizAlign="1"/><v:tabList/>Query 1</text>				</g>
				<rect x="0" y="566.929" width="141.732" height="28.3465" class="st6"/>
				<text x="54.72" y="584.1" class="st15" v:langID="1033"><v:paragraph v:horizAlign="1"/><v:tabList/>Query 1</text>			</g>
			<g id="shape44-101" v:mID="44" v:groupContext="shape" transform="translate(0,-28.3465)">
				<title>Прямоугольник.14</title>
				<desc>…</desc>
				<v:userDefs>
					<v:ud v:nameU="visVersion" v:val="VT0(15):26"/>
				</v:userDefs>
				<v:textBlock v:margins="rect(4,4,4,4)" v:tabSpace="42.5197"/>
				<v:textRect cx="70.8661" cy="581.102" width="141.74" height="28.3465"/>
				<g id="shadow44-102" v:groupContext="shadow" v:shadowOffsetX="0.345598" v:shadowOffsetY="-1.97279" v:shadowType="1"
						transform="matrix(1,0,0,1,0.345598,1.97279)" class="st1">
					<rect x="0" y="566.929" width="141.732" height="28.3465" class="st2"/>
					<text x="67.41" y="584.1" class="st14" v:langID="1033"><v:paragraph v:horizAlign="1"/><v:tabList/>…</text>				</g>
				<rect x="0" y="566.929" width="141.732" height="28.3465" class="st6"/>
				<text x="67.41" y="584.1" class="st15" v:langID="1033"><v:paragraph v:horizAlign="1"/><v:tabList/>…</text>			</g>
			<g id="shape45-109" v:mID="45" v:groupContext="shape">
				<title>Прямоугольник.15</title>
				<desc>Query N</desc>
				<v:userDefs>
					<v:ud v:nameU="visVersion" v:val="VT0(15):26"/>
				</v:userDefs>
				<v:textBlock v:margins="rect(4,4,4,4)" v:tabSpace="42.5197"/>
				<v:textRect cx="70.8661" cy="581.102" width="141.74" height="28.3465"/>
				<g id="shadow45-110" v:groupContext="shadow" v:shadowOffsetX="0.345598" v:shadowOffsetY="-1.97279" v:shadowType="1"
						transform="matrix(1,0,0,1,0.345598,1.97279)" class="st1">
					<rect x="0" y="566.929" width="141.732" height="28.3465" class="st2"/>
					<text x="54.02" y="584.1" class="st14" v:langID="1033"><v:paragraph v:horizAlign="1"/><v:tabList/>Query N</text>				</g>
				<rect x="0" y="566.929" width="141.732" height="28.3465" class="st6"/>
				<text x="54.02" y="584.1" class="st15" v:langID="1033"><v:paragraph v:horizAlign="1"/><v:tabList/>Query N</text>			</g>
		</g>
		<g id="shape46-117" v:mID="46" v:groupContext="shape" transform="translate(451.196,-311.508) rotate(23.6294)">
			<title>Простая двусторонняя стрелка.46</title>
			<desc>DOM PostMessage</desc>
			<v:userDefs>
				<v:ud v:nameU="visVersion" v:val="VT0(15):26"/>
				<v:ud v:nameU="ArrowType" v:prompt="" v:val="VT0(3):26"/>
			</v:userDefs>
			<v:textBlock v:margins="rect(4,4,4,4)" v:tabSpace="42.5197"/>
			<v:textRect cx="61.8812" cy="595.276" width="123.77" height="0"/>
			<g id="shadow46-118" v:groupContext="shadow" v:shadowOffsetX="0.345598" v:shadowOffsetY="-1.97279" v:shadowType="1"
					transform="matrix(1,0,0,1,1.10735,1.66887)" class="st1">
				<path d="M0 595.28 L11.34 583.94 L11.34 589.61 L112.42 589.61 L112.42 583.94 L123.76 595.28 L112.42 606.61 L112.42
							 600.94 L11.34 600.94 L11.34 606.61 L0 595.28 Z" class="st8"/>
			</g>
			<path d="M0 595.28 L11.34 583.94 L11.34 589.61 L112.42 589.61 L112.42 583.94 L123.76 595.28 L112.42 606.61 L112.42 600.94
						 L11.34 600.94 L11.34 606.61 L0 595.28 Z" class="st9"/>
			<text x="23.33" y="598.28" class="st10" v:langID="1033"><v:paragraph v:horizAlign="1"/><v:tabList/>DOM PostMessage</text>		</g>
		<g id="shape47-123" v:mID="47" v:groupContext="shape" transform="translate(56.6929,-538.583)">
			<title>Прямоугольник.47</title>
			<desc>BROWSER</desc>
			<v:userDefs>
				<v:ud v:nameU="visVersion" v:val="VT0(15):26"/>
			</v:userDefs>
			<v:textBlock v:margins="rect(4,4,4,4)" v:tabSpace="42.5197"/>
			<v:textRect cx="212.598" cy="575.929" width="425.2" height="38.6929"/>
			<g id="shadow47-124" v:groupContext="shadow" v:shadowOffsetX="0.345598" v:shadowOffsetY="-1.97279" v:shadowType="1"
					transform="matrix(1,0,0,1,0.345598,1.97279)" class="st1">
				<rect x="0" y="556.583" width="425.197" height="38.6929" class="st11"/>
			</g>
			<rect x="0" y="556.583" width="425.197" height="38.6929" class="st16"/>
			<text x="161.84" y="583.13" class="st17" v:langID="1033"><v:paragraph v:horizAlign="1"/><v:tabList/>BROWSER</text>		</g>
		<g id="shape48-129" v:mID="48" v:groupContext="shape" transform="translate(524.409,-538.583)">
			<title>Прямоугольник.48</title>
			<desc>WEB</desc>
			<v:userDefs>
				<v:ud v:nameU="visVersion" v:val="VT0(15):26"/>
			</v:userDefs>
			<v:textBlock v:margins="rect(4,4,4,4)" v:tabSpace="42.5197"/>
			<v:textRect cx="117.638" cy="574.016" width="235.28" height="42.5197"/>
			<g id="shadow48-130" v:groupContext="shadow" v:shadowOffsetX="0.345598" v:shadowOffsetY="-1.97279" v:shadowType="1"
					transform="matrix(1,0,0,1,0.345598,1.97279)" class="st1">
				<rect x="0" y="552.756" width="235.276" height="42.5197" class="st11"/>
			</g>
			<rect x="0" y="552.756" width="235.276" height="42.5197" class="st16"/>
			<text x="94.18" y="581.22" class="st18" v:langID="1033"><v:paragraph v:horizAlign="1"/><v:tabList/>WEB</text>		</g>
		<g id="shape51-135" v:mID="51" v:groupContext="shape" transform="translate(325.984,-354.331)">
			<title>Лист.51</title>
			<desc>...</desc>
			<v:textBlock v:margins="rect(4,4,4,4)" v:tabSpace="42.5197"/>
			<v:textRect cx="70.8661" cy="588.189" width="141.74" height="14.1732"/>
			<rect x="0" y="581.102" width="141.732" height="14.1732" class="st19"/>
			<text x="61.25" y="595.39" class="st20" v:langID="1033"><v:paragraph v:horizAlign="1"/><v:tabList/>...</text>		</g>
		<g id="shape52-138" v:mID="52" v:groupContext="shape" transform="translate(566.929,-396.85)">
			<title>Лист.52</title>
			<desc>...</desc>
			<v:textBlock v:margins="rect(4,4,4,4)" v:tabSpace="42.5197"/>
			<v:textRect cx="70.8661" cy="588.189" width="141.74" height="14.1732"/>
			<rect x="0" y="581.102" width="141.732" height="14.1732" class="st19"/>
			<text x="61.25" y="595.39" class="st20" v:langID="1033"><v:paragraph v:horizAlign="1"/><v:tabList/>...</text>		</g>
	</g>
</svg>
